<?xml version="1.0" encoding="UTF-8"?>
<svg enable-background="new 0 0 113.4 113.4" version="1.1" viewBox="0 0 113.4 113.4" xml:space="preserve" xmlns="http://www.w3.org/2000/svg">
<style type="text/css">
	.st0{fill:transparent;}
	.st1{fill:#228DBE;}
</style>
<rect class="st0" width="113.4" height="113.4"/>
<path class="st1" d="m44.2 54.5c-0.4-1.5-1.2-2.6-2.2-3.5s-2.5-1.3-4.4-1.3c-1.1 0-2.2 0.2-3.2 0.8-1 0.5-1.9 1.1-2.6 1.9-0.7 0.7-1.2 1.4-1.5 2.1-0.4-1.3-1-2.4-1.9-3.2-1.1-1-2.6-1.6-4.7-1.6-1 0-1.8 0.2-2.7 0.5-0.8 0.3-1.6 0.8-2.2 1.3-0.7 0.5-1.2 1.2-1.6 1.8-0.1 0.1-0.1 0.2-0.2 0.3v-1.4c0-0.6-0.2-1.2-0.6-1.6s-0.9-0.6-1.5-0.6-1.1 0.2-1.5 0.6-0.6 0.9-0.6 1.6v18.4c0 0.6 0.2 1.2 0.6 1.6s0.9 0.6 1.5 0.6 1.1-0.2 1.4-0.6c0.4-0.4 0.6-1 0.6-1.6v-11.4c0-1 0.2-1.9 0.7-2.8 0.5-0.8 1.1-1.5 1.9-2s1.8-0.7 2.8-0.7c1.1 0 2 0.2 2.6 0.7s1.1 1.2 1.3 2c0.3 0.8 0.4 1.8 0.4 2.8v11.5c0 0.6 0.2 1.2 0.6 1.6s0.9 0.6 1.5 0.6 1.1-0.2 1.5-0.6 0.6-1 0.6-1.6v-11.4c0-1 0.2-1.9 0.7-2.8 0.5-0.8 1.1-1.5 1.9-2s1.8-0.8 2.8-0.8c1.1 0 2 0.2 2.6 0.8 0.6 0.5 1.1 1.2 1.4 2s0.4 1.8 0.4 2.8v11.4c0 0.6 0.2 1.2 0.6 1.6s0.9 0.6 1.5 0.6 1.1-0.2 1.5-0.6 0.6-1 0.6-1.6v-11.5c0-1.7-0.2-3.3-0.6-4.7z"/>
<path class="st1" d="m71.1 41.1c-0.4-0.4-0.9-0.6-1.6-0.6-0.6 0-1.1 0.2-1.5 0.6s-0.6 1-0.6 1.6v9.8c-0.3-0.4-0.7-0.7-1.1-1.1-0.8-0.6-1.7-1.1-2.7-1.6s-2.2-0.6-3.4-0.6c-1.9 0-3.7 0.5-5.2 1.5-1.6 1-2.8 2.4-3.7 4.2s-1.4 3.8-1.4 6.1 0.5 4.3 1.4 6.1 2.2 3.2 3.7 4.2c1.6 1 3.3 1.5 5.3 1.5 1.1 0 2.2-0.2 3.1-0.6 1-0.4 1.8-0.9 2.5-1.5 0.6-0.5 1-1 1.4-1.5v1c0 0.6 0.2 1.2 0.6 1.6s0.9 0.6 1.5 0.6 1.2-0.2 1.5-0.6c0.4-0.4 0.6-0.9 0.6-1.6v-27.5c0.2-0.7 0-1.2-0.4-1.6zm-4.3 24c-0.6 1.2-1.4 2.1-2.4 2.8s-2.2 1-3.6 1c-1.3 0-2.5-0.3-3.5-1s-1.8-1.6-2.4-2.8-0.9-2.5-0.9-4 0.3-2.8 0.9-4 1.4-2.1 2.4-2.8 2.2-1 3.5-1 2.5 0.3 3.6 1c1 0.7 1.8 1.6 2.4 2.8s0.9 2.5 0.9 4-0.4 2.8-0.9 4z"/>
<path class="st1" d="m99.1 54.9c-0.9-1.8-2.2-3.2-3.7-4.2s-3.4-1.5-5.4-1.5c-1 0-1.9 0.2-2.8 0.5s-1.7 0.8-2.4 1.3-1.3 1.1-1.7 1.7c-0.1 0.1-0.1 0.1-0.1 0.2v-10.2c0-0.6-0.2-1.2-0.6-1.6s-0.9-0.6-1.5-0.6-1.2 0.2-1.6 0.6-0.6 1-0.6 1.6v28c0 0.6 0.2 1.2 0.6 1.6s0.9 0.6 1.6 0.6c0.6 0 1.1-0.2 1.5-0.6s0.6-0.9 0.6-1.5v-1.1c-0.1-0.1 0 0 0 0 0.4 0.5 0.9 1 1.6 1.5 0.7 0.6 1.6 1 2.6 1.4s2 0.5 3.1 0.5c1.9 0 3.7-0.5 5.2-1.5 1.6-1 2.8-2.4 3.7-4.2s1.4-3.8 1.4-6.1c-0.2-2.6-0.6-4.6-1.5-6.4zm-3.7 10.1c-0.6 1.2-1.4 2.2-2.4 2.9s-2.2 1-3.5 1c-1.4 0-2.6-0.3-3.6-1s-1.8-1.6-2.4-2.8-0.9-2.5-0.9-4 0.3-2.8 0.9-4 1.4-2.1 2.4-2.8 2.2-1 3.6-1c1.3 0 2.5 0.3 3.5 1s1.8 1.6 2.4 2.8 0.9 2.5 0.9 4c0 1.4-0.3 2.7-0.9 3.9z"/>
</svg>
